# xmcd
# Copyright (C) 1995-1998 Ti Kan
#
# Track frame offsets:
#       150
#       18653
#       36952
#       52629
#
# Disc length: 840 seconds
#
# Revision: 0
# Processed by: cddbd v1.5.2PL0 Copyright (c) Steve Scherf et al.
# Submitted via: CD-Import v1.0
#
DISCID=27034604
DTITLE=Farin Urlaub Racing Team - Die Wahrheit Übers Lügen
DYEAR=08
DGENRE=
TTITLE0=I.f.d.g.
TTITLE1=Zu Heiss
TTITLE2=Insel
TTITLE3=Trotzdem
EXTD=
EXTT0=
EXTT1=
EXTT2=
EXTT3=
PLAYORDER=
